<svg width="200" height="60" viewBox="0 0 200 60" xmlns="http://www.w3.org/2000/svg">
  <!-- Crown icon -->
  <path d="M30 15 L40 5 L50 15 L55 10 L60 25 L20 25 L25 10 L30 15" fill="#FFD700" stroke="#1E3A8A" stroke-width="1.5"/>
  
  <!-- Circle for Madrid colors -->
  <circle cx="40" cy="35" r="20" fill="#FFFFFF" stroke="#1E3A8A" stroke-width="2"/>
  
  <!-- HM letters stylized -->
  <text x="28" y="40" font-family="Arial, sans-serif" font-weight="bold" font-size="18" fill="#1E3A8A">HM</text>
  
  <!-- Stylized text -->
  <path d="M80 20 Q85 15, 90 20 L90 40" stroke="#1E3A8A" stroke-width="2.5" fill="none"/>
  <path d="M100 20 Q110 15, 115 25 Q120 35, 110 40 Q100 42, 95 35" stroke="#1E3A8A" stroke-width="2.5" fill="none"/>
  <path d="M125 20 L125 40" stroke="#1E3A8A" stroke-width="2.5" fill="none"/>
  <path d="M140 20 L140 40 M130 30 L150 30" stroke="#FFD700" stroke-width="2.5" fill="none"/>
  <path d="M155 20 Q160 15, 165 20 L165 40" stroke="#1E3A8A" stroke-width="2.5" fill="none"/>
  <path d="M170 20 Q180 15, 185 25 Q190 35, 180 40 Q170 42, 165 35" stroke="#FFD700" stroke-width="2.5" fill="none"/>
</svg>